<svg width="38" height="40" viewBox="0 0 38 40" fill="none" xmlns="http://www.w3.org/2000/svg">
<path d="M24.5417 23.3333H23.2908L22.8475 22.8833C24.3992 20.9833 25.3333 18.5167 25.3333 15.8333C25.3333 9.85 20.7258 5 15.0417 5C9.3575 5 4.75 9.85 4.75 15.8333C4.75 21.8167 9.3575 26.6667 15.0417 26.6667C17.5908 26.6667 19.9342 25.6833 21.7392 24.05L22.1667 24.5167V25.8333L30.0833 34.15L32.4425 31.6667L24.5417 23.3333ZM15.0417 23.3333C11.0992 23.3333 7.91667 19.9833 7.91667 15.8333C7.91667 11.6833 11.0992 8.33333 15.0417 8.33333C18.9842 8.33333 22.1667 11.6833 22.1667 15.8333C22.1667 19.9833 18.9842 23.3333 15.0417 23.3333Z" fill="#B09896"/>
</svg>
