<svg width="158" height="167" viewBox="0 0 158 167" fill="none" xmlns="http://www.w3.org/2000/svg">
<path d="M85.5827 48.7083H72.416V76.5416H46.0827V90.4583H72.416V118.292H85.5827V90.4583H111.916V76.5416H85.5827V48.7083ZM78.9994 13.9166C42.6593 13.9166 13.166 45.09 13.166 83.5C13.166 121.91 42.6593 153.083 78.9994 153.083C115.339 153.083 144.833 121.91 144.833 83.5C144.833 45.09 115.339 13.9166 78.9994 13.9166ZM78.9994 139.167C49.9669 139.167 26.3327 114.186 26.3327 83.5C26.3327 52.8137 49.9669 27.8333 78.9994 27.8333C108.032 27.8333 131.666 52.8137 131.666 83.5C131.666 114.186 108.032 139.167 78.9994 139.167Z" fill="#B09896"/>
</svg>
