<svg width="61" height="62" viewBox="0 0 61 62" fill="none" xmlns="http://www.w3.org/2000/svg">
<path d="M41.9372 7.75C37.5147 7.75 33.2701 9.8425 30.4997 13.1492C27.7293 9.8425 23.4847 7.75 19.0622 7.75C11.2338 7.75 5.08301 14.0017 5.08301 21.9583C5.08301 31.7233 13.7247 39.68 26.8143 51.77L30.4997 55.1542L34.1851 51.7442C47.2747 39.68 55.9163 31.7233 55.9163 21.9583C55.9163 14.0017 49.7655 7.75 41.9372 7.75ZM30.7538 47.9208L30.4997 48.1792L30.2455 47.9208C18.1472 36.7867 10.1663 29.4242 10.1663 21.9583C10.1663 16.7917 13.9788 12.9167 19.0622 12.9167C22.9763 12.9167 26.7888 15.4742 28.1359 19.0133H32.8888C34.2105 15.4742 38.023 12.9167 41.9372 12.9167C47.0205 12.9167 50.833 16.7917 50.833 21.9583C50.833 29.4242 42.8522 36.7867 30.7538 47.9208Z" fill="#B09896"/>
</svg>
