<svg width="53" height="52" viewBox="0 0 53 52" fill="none" xmlns="http://www.w3.org/2000/svg">
<g clip-path="url(#clip0_93_29)">
<path d="M26.5003 46.1613L23.4176 43.355C12.4686 33.4266 5.24023 26.8785 5.24023 18.8422C5.24023 12.2941 10.3852 7.14917 16.9333 7.14917C20.6325 7.14917 24.1829 8.87123 26.5003 11.5925C28.8176 8.87123 32.368 7.14917 36.0673 7.14917C42.6154 7.14917 47.7603 12.2941 47.7603 18.8422C47.7603 26.8785 40.5319 33.4266 29.583 43.3763L26.5003 46.1613Z" fill="#B09896"/>
<g clip-path="url(#clip1_93_29)">
<path d="M26.5003 46.1613L23.4176 43.355C12.4686 33.4266 5.24023 26.8785 5.24023 18.8422C5.24023 12.2941 10.3852 7.14917 16.9333 7.14917C20.6325 7.14917 24.1829 8.87123 26.5003 11.5925C28.8176 8.87123 32.368 7.14917 36.0673 7.14917C42.6154 7.14917 47.7603 12.2941 47.7603 18.8422C47.7603 26.8785 40.5319 33.4266 29.583 43.3763L26.5003 46.1613Z" fill="#B09896"/>
</g>
</g>
<defs>
<clipPath id="clip0_93_29">
<rect width="51.0241" height="51.0241" fill="white" transform="translate(0.988281 0.771118)"/>
</clipPath>
<clipPath id="clip1_93_29">
<rect width="51.0241" height="51.0241" fill="white" transform="translate(0.988281 0.771118)"/>
</clipPath>
</defs>
</svg>
