<svg width="76" height="63" viewBox="0 0 76 63" fill="none" xmlns="http://www.w3.org/2000/svg">
<path d="M57.0003 15.75H50.667C50.667 9.94875 44.9987 5.25 38.0003 5.25C31.002 5.25 25.3337 9.94875 25.3337 15.75H19.0003C15.517 15.75 12.667 18.1125 12.667 21V52.5C12.667 55.3875 15.517 57.75 19.0003 57.75H57.0003C60.4837 57.75 63.3337 55.3875 63.3337 52.5V21C63.3337 18.1125 60.4837 15.75 57.0003 15.75ZM31.667 26.25C31.667 27.6938 30.242 28.875 28.5003 28.875C26.7587 28.875 25.3337 27.6938 25.3337 26.25V21H31.667V26.25ZM38.0003 10.5C41.4837 10.5 44.3337 12.8625 44.3337 15.75H31.667C31.667 12.8625 34.517 10.5 38.0003 10.5ZM50.667 26.25C50.667 27.6938 49.242 28.875 47.5003 28.875C45.7587 28.875 44.3337 27.6938 44.3337 26.25V21H50.667V26.25Z" fill="#48302E"/>
</svg>
